<svg width="119" height="106" viewBox="0 0 119 106" fill="none" xmlns="http://www.w3.org/2000/svg">
<path d="M101.37 16.34H28.562V11.0651H50.948C51.558 11.0651 52.143 10.8227 52.5743 10.3914C53.0057 9.96006 53.248 9.37505 53.248 8.76505C53.248 8.15505 53.0057 7.57004 52.5743 7.1387C52.143 6.70737 51.558 6.46505 50.948 6.46505H2.3C1.69 6.46505 1.10499 6.70737 0.673654 7.1387C0.242321 7.57004 0 8.15505 0 8.76505C0 9.37505 0.242321 9.96006 0.673654 10.3914C1.10499 10.8227 1.69 11.0651 2.3 11.0651H23.958V16.4851C18.7019 17.0305 13.7443 19.1922 9.76801 22.6725C5.79171 26.1529 2.99238 30.7805 1.75563 35.918C0.518884 41.0555 0.905562 46.4501 2.8624 51.3587C4.81925 56.2673 8.24997 60.4484 12.682 63.326V70.635H10.4C9.79 70.635 9.20499 70.8774 8.77365 71.3087C8.34232 71.74 8.1 72.3251 8.1 72.9351C8.1 73.5451 8.34232 74.1301 8.77365 74.5614C9.20499 74.9927 9.79 75.235 10.4 75.235H42.832C43.442 75.235 44.027 74.9927 44.4583 74.5614C44.8897 74.1301 45.132 73.5451 45.132 72.9351C45.132 72.3251 44.8897 71.74 44.4583 71.3087C44.027 70.8774 43.442 70.635 42.832 70.635H40.557V63.315C43.8505 61.1672 46.6044 58.2889 48.6048 54.9039C50.6052 51.5188 51.7981 47.7181 52.091 43.7971L93.738 34.9971C94.0541 34.9283 94.3525 34.7945 94.614 34.604C94.8755 34.4136 95.0945 34.1708 95.257 33.891L103.367 19.791C103.565 19.4401 103.668 19.0434 103.666 18.6403C103.664 18.2373 103.556 17.8417 103.354 17.493C103.152 17.1442 102.863 16.8542 102.514 16.6518C102.165 16.4495 101.77 16.3416 101.367 16.3391L101.37 16.34ZM24.309 21.178V37.1371H6.247C7.2436 32.9387 9.51437 29.1513 12.748 26.2942C15.9816 23.437 20.0198 21.65 24.309 21.178ZM35.961 70.634H17.289V65.689C23.2808 68.0737 29.9582 68.0737 35.95 65.689V70.634H35.961ZM26.611 62.8751C21.0531 62.8679 15.7249 60.6569 11.7948 56.727C7.86463 52.7971 5.65341 47.4689 5.646 41.911C5.646 41.842 5.671 41.8061 5.671 41.7401H26.61C27.22 41.7401 27.805 41.4977 28.2363 41.0664C28.6677 40.6351 28.91 40.05 28.91 39.44V21.178C34.2439 21.7416 39.1573 24.3336 42.6339 28.4178C46.1106 32.5021 47.8847 37.7663 47.5893 43.1218C47.2939 48.4772 44.9517 53.5144 41.0469 57.1915C37.1421 60.8686 31.9736 62.9045 26.61 62.8781L26.611 62.8751ZM91.776 30.702L52.024 39.1091C51.6215 35.4843 50.4472 31.9879 48.5801 28.8551C46.7131 25.7223 44.1966 23.0258 41.2 20.9471H97.386L91.776 30.702ZM119 12.8181C119 13.428 118.758 14.0131 118.326 14.4444C117.895 14.8757 117.31 15.118 116.7 15.118H109.32V22.511C109.32 23.121 109.078 23.7061 108.646 24.1374C108.215 24.5687 107.63 24.8111 107.02 24.8111C106.41 24.8111 105.825 24.5687 105.394 24.1374C104.962 23.7061 104.72 23.121 104.72 22.511V15.1201H97.32C97.018 15.1201 96.7189 15.0606 96.4398 14.945C96.1608 14.8294 95.9072 14.66 95.6937 14.4464C95.4801 14.2328 95.3107 13.9793 95.1951 13.7002C95.0795 13.4212 95.02 13.1221 95.02 12.82C95.02 12.518 95.0795 12.2189 95.1951 11.9399C95.3107 11.6608 95.4801 11.4073 95.6937 11.1937C95.9072 10.9801 96.1608 10.8107 96.4398 10.6951C96.7189 10.5795 97.018 10.5201 97.32 10.5201H104.72V3.12605C104.72 2.82401 104.779 2.52493 104.895 2.24588C105.011 1.96683 105.18 1.71328 105.394 1.4997C105.607 1.28613 105.861 1.11671 106.14 1.00113C106.419 0.88554 106.718 0.82605 107.02 0.82605C107.322 0.82605 107.621 0.88554 107.9 1.00113C108.179 1.11671 108.433 1.28613 108.646 1.4997C108.86 1.71328 109.029 1.96683 109.145 2.24588C109.261 2.52493 109.32 2.82401 109.32 3.12605V10.514H116.7C117.31 10.5154 117.895 10.7587 118.326 11.1906C118.757 11.6225 119 12.2078 119 12.8181ZM39.845 48.259C39.845 48.869 39.6027 49.4541 39.1713 49.8854C38.74 50.3167 38.155 50.5591 37.545 50.5591H34.917V53.1921C34.917 53.802 34.6747 54.3871 34.2433 54.8184C33.812 55.2497 33.227 55.4921 32.617 55.4921C32.007 55.4921 31.422 55.2497 30.9907 54.8184C30.5593 54.3871 30.317 53.802 30.317 53.1921V50.5601H27.678C27.068 50.5601 26.483 50.3177 26.0517 49.8864C25.6203 49.4551 25.378 48.87 25.378 48.26C25.378 47.6501 25.6203 47.065 26.0517 46.6337C26.483 46.2024 27.068 45.96 27.678 45.96H30.312V43.326C30.312 42.7161 30.5543 42.131 30.9857 41.6997C31.417 41.2684 32.002 41.0261 32.612 41.0261C33.222 41.0261 33.807 41.2684 34.2383 41.6997C34.6697 42.131 34.912 42.7161 34.912 43.326V45.954H37.539C37.842 45.9533 38.1421 46.0123 38.4222 46.1279C38.7022 46.2434 38.9567 46.4132 39.171 46.6273C39.3853 46.8415 39.5551 47.0959 39.6708 47.376C39.7865 47.656 39.8457 47.9561 39.845 48.259ZM89.988 40.8531C89.7912 40.5788 89.5358 40.3519 89.2404 40.1886C88.9449 40.0253 88.6169 39.9298 88.28 39.909C87.9418 39.8867 87.6028 39.9394 87.2873 40.0633C86.9718 40.1873 86.6876 40.3794 86.455 40.626C83.604 43.656 80.89 46.7401 78.177 49.826C75.949 52.382 73.697 54.918 71.377 57.439C71.0162 57.827 70.801 58.328 70.7682 58.8568C70.7353 59.3857 70.8869 59.9095 71.197 60.3391C72.437 62.0731 73.803 63.8 75.151 65.4911C76.068 66.6411 76.967 67.7661 77.786 68.8621C68.1422 77.7761 56.8858 84.7678 44.621 89.4621C43.1117 86.2621 41.5643 83.0464 39.979 79.815C39.7371 79.3289 39.3327 78.9427 38.8359 78.7235C38.339 78.5043 37.7812 78.466 37.259 78.6151C34.059 79.5571 30.842 80.4151 27.644 81.2391C23.641 82.2811 19.631 83.326 15.6 84.582C15.2779 84.6796 14.9814 84.8476 14.7322 85.0738C14.483 85.3 14.2872 85.5788 14.159 85.8901C14.032 86.2053 13.9745 86.5441 13.9903 86.8836C14.0062 87.223 14.0951 87.5551 14.251 87.857C17.6255 94.4542 22.2156 100.355 27.78 105.248C28.1735 105.58 28.6656 105.773 29.18 105.797C30.17 105.832 31.18 105.864 32.195 105.864C43.031 105.864 59.143 103.625 74.322 92.9221C85.35 85.2067 94.0163 74.5777 99.353 62.2221C99.5629 61.7408 99.6007 61.2019 99.46 60.6961C97.5177 53.5674 94.3093 46.8461 89.988 40.8531ZM71.682 89.1721C57.482 99.1721 42.366 101.266 32.199 101.266C31.513 101.266 30.831 101.255 30.164 101.237C26.0095 97.4621 22.4779 93.054 19.7 88.176C22.748 87.285 25.785 86.4851 28.829 85.6861C31.451 85.0021 34.086 84.3101 36.708 83.563C38.2933 86.8177 39.8407 90.0557 41.35 93.277C41.5833 93.7903 41.9991 94.1983 42.5167 94.4218C43.0343 94.6453 43.6165 94.6682 44.15 94.4861C57.419 90.1171 72.82 80.5611 82.458 70.707C82.8304 70.3229 83.0588 69.822 83.1048 69.2889C83.1507 68.7558 83.0112 68.2232 82.71 67.7811C81.567 66.1401 80.183 64.4051 78.763 62.6161C77.855 61.473 76.934 60.323 76.056 59.149C77.946 57.068 79.792 54.9631 81.64 52.861C83.69 50.514 85.753 48.177 87.874 45.861C90.9188 50.5835 93.2556 55.7264 94.81 61.1261C89.7943 72.4038 81.7981 82.1003 71.682 89.1721Z" fill="#00DBD0"/>
</svg>
