<svg width="63" height="83" viewBox="0 0 63 83" fill="none" xmlns="http://www.w3.org/2000/svg">
<g opacity="0.8">
<path d="M15.352 67.567V73.962C15.3626 74.8124 15.2043 75.6565 14.8862 76.4452C14.5681 77.234 14.0965 77.9518 13.4989 78.5569C12.9013 79.162 12.1895 79.6425 11.4047 79.9704C10.62 80.2983 9.77798 80.4671 8.9275 80.4671C8.07701 80.4671 7.23498 80.2983 6.45025 79.9704C5.66552 79.6425 4.9537 79.162 4.35608 78.5569C3.75845 77.9518 3.28692 77.234 2.96882 76.4452C2.65072 75.6565 2.49238 74.8124 2.50299 73.962V3.18199H46.224V66.226H48.724V0.666992H-5.13223e-06V73.962C-0.00564868 76.3411 0.929896 78.6259 2.6025 80.3178C4.2751 82.0097 6.54899 82.9713 8.92799 82.993H9.01099V82.951L47.397 83C49.7857 82.9826 52.0712 82.0238 53.7573 80.3317C55.4434 78.6396 56.3941 76.3507 56.403 73.962V67.567H15.352ZM53.9 73.967C53.878 75.689 53.1847 77.3343 51.9676 78.5527C50.7505 79.771 49.1059 80.4662 47.384 80.49L15.096 80.448C15.9697 79.6097 16.6646 78.6033 17.1389 77.4893C17.6133 76.3753 17.8572 75.1768 17.856 73.966V70.086H53.901V73.966L53.9 73.967Z" fill="#00DBD0"/>
<path d="M21.693 8.38H7.67599V10.895H21.693V8.38Z" fill="#00DBD0"/>
<path d="M12.849 13.578H7.67599V16.093H12.849V13.578Z" fill="#00DBD0"/>
<path d="M12.849 23.8049H7.67599V26.3199H12.849V23.8049Z" fill="#00DBD0"/>
<path d="M41.051 23.8049H15.352V26.3199H41.051V23.8049Z" fill="#00DBD0"/>
<path d="M12.849 29.0031H7.67599V31.5181H12.849V29.0031Z" fill="#00DBD0"/>
<path d="M41.051 29.0031H15.352V31.5181H41.051V29.0031Z" fill="#00DBD0"/>
<path d="M12.849 34.033H7.67599V36.548H12.849V34.033Z" fill="#00DBD0"/>
<path d="M41.051 34.033H15.352V36.548H41.051V34.033Z" fill="#00DBD0"/>
<path d="M12.849 39.231H7.67599V41.746H12.849V39.231Z" fill="#00DBD0"/>
<path d="M41.051 39.231H15.352V41.746H41.051V39.231Z" fill="#00DBD0"/>
<path d="M12.849 44.429H7.67599V46.944H12.849V44.429Z" fill="#00DBD0"/>
<path d="M41.051 44.429H15.352V46.944H41.051V44.429Z" fill="#00DBD0"/>
<path d="M41.051 49.626H31.873V52.141H41.051V49.626Z" fill="#00DBD0"/>
<path d="M29.37 49.626H25.532V52.141H29.37V49.626Z" fill="#00DBD0"/>
<path d="M41.051 54.656H31.873V57.171H41.051V54.656Z" fill="#00DBD0"/>
<path d="M29.37 54.656H25.532V57.171H29.37V54.656Z" fill="#00DBD0"/>
<path d="M21.693 59.854V66.225H24.193V62.369H38.377V66.225H40.877V59.854H21.693Z" fill="#00DBD0"/>
<path d="M33.375 8.38H30.705V10.895H33.375V8.38Z" fill="#00DBD0"/>
<path d="M37.046 8.38H34.543V10.895H37.046V8.38Z" fill="#00DBD0"/>
<path d="M41.051 8.38H38.381V10.895H41.051V8.38Z" fill="#00DBD0"/>
<path d="M56.403 7.20593H53.9V10.8949H56.403V7.20593Z" fill="#00DBD0"/>
<path d="M58.843 17.434V12.234H51.164V50.814H53.896V54.654H56.396V50.814H58.843V19.949H60.07V31.518H62.57V17.434H58.843ZM56.283 48.242H53.723V19.949H56.283V48.242ZM56.283 17.434H53.723V14.805H56.283V17.434Z" fill="#00DBD0"/>
<path d="M56.403 55.998H53.733V58.522H56.403V55.998Z" fill="#00DBD0"/>
</g>
</svg>
