<svg width="100" height="106" viewBox="0 0 100 106" fill="none" xmlns="http://www.w3.org/2000/svg">
<path fill-rule="evenodd" clip-rule="evenodd" d="M64.249 89.171C50.382 89.171 59.513 92.591 61.402 77.484C62.902 65.515 68.455 59.932 74.919 60.65C81.382 59.932 86.931 65.54 88.436 77.484C90.325 92.557 99.456 89.171 85.589 89.171H80.189C80.189 92.531 79.514 93.352 82.959 95.386C90.277 99.712 98.647 96.814 99.559 105.859H0C1.6 87.401 21.108 98.759 22.613 85.913C22.784 84.468 18.142 80.527 17.347 77.877C15.637 75.192 15.064 70.935 16.911 68.088C17.638 66.968 17.321 65.335 17.321 63.813C17.321 48.381 43.157 48.373 43.157 63.813C43.157 65.771 42.704 66.865 43.764 68.404C45.551 70.969 44.619 75.517 43.131 77.904C42.182 80.691 37.317 84.367 37.631 85.94C39.726 96.575 51.891 89.65 56.918 98.661C59.91 97.861 63.51 97.396 66.878 95.404C70.246 93.412 69.678 92.549 69.648 89.189H64.248L64.249 89.171ZM34.941 0.822021H69.994C71.8926 0.826511 73.7122 1.58273 75.0548 2.92527C76.3973 4.26781 77.1535 6.08739 77.158 7.98602V28.573C77.1535 30.4717 76.3973 32.2912 75.0548 33.6338C73.7122 34.9763 71.8926 35.7325 69.994 35.737H47.321L36.446 45.091C36.3258 45.1958 36.1859 45.2757 36.0345 45.3261C35.8832 45.3764 35.7233 45.3962 35.5643 45.3843C35.4052 45.3724 35.2501 45.329 35.1079 45.2567C34.9657 45.1844 34.8393 45.0846 34.736 44.963C34.5342 44.7252 34.4302 44.4196 34.445 44.108L35.052 35.738H34.958C33.0594 35.7335 31.2398 34.9773 29.8972 33.6348C28.5547 32.2922 27.7985 30.4727 27.794 28.574V7.98602C27.7985 6.09032 28.5523 4.2733 29.8912 2.93124C31.2301 1.58919 33.0453 0.830992 34.941 0.822021ZM80.681 15.937C82.2767 16.2533 83.7136 17.1128 84.747 18.3692C85.7804 19.6256 86.3465 21.2012 86.349 22.828V39.922C86.3559 41.7838 85.6247 43.5724 84.3155 44.8961C83.0062 46.2197 81.2257 46.9705 79.364 46.984H79.108L79.698 55.533C79.7138 55.7407 79.6675 55.9483 79.565 56.1296C79.4625 56.3108 79.3084 56.4575 79.1223 56.551C78.9362 56.6445 78.7266 56.6805 78.52 56.6545C78.3133 56.6285 78.1191 56.5417 77.962 56.405L67.036 46.705H42.362L49.441 39.498H74.747C76.3343 39.498 77.8566 38.8675 78.979 37.7451C80.1014 36.6227 80.732 35.1003 80.732 33.513V15.946L80.681 15.937ZM38.473 22.477C38.1702 22.4509 37.8883 22.3121 37.6828 22.0882C37.4774 21.8643 37.3634 21.5714 37.3634 21.2675C37.3634 20.9636 37.4774 20.6708 37.6828 20.4468C37.8883 20.2229 38.1702 20.0842 38.473 20.058H61.4C61.5676 20.0436 61.7364 20.0641 61.8956 20.1183C62.0549 20.1725 62.2011 20.2592 62.3251 20.3729C62.4491 20.4867 62.548 20.6249 62.6158 20.7789C62.6835 20.9329 62.7184 21.0993 62.7184 21.2675C62.7184 21.4357 62.6835 21.6021 62.6158 21.7561C62.548 21.9101 62.4491 22.0484 62.3251 22.1621C62.2011 22.2758 62.0549 22.3626 61.8956 22.4168C61.7364 22.471 61.5676 22.4915 61.4 22.477H38.473ZM38.473 14.184C38.1533 14.184 37.8467 14.057 37.6206 13.8309C37.3945 13.6049 37.2675 13.2982 37.2675 12.9785C37.2675 12.6588 37.3945 12.3522 37.6206 12.1261C37.8467 11.9 38.1533 11.773 38.473 11.773H66.685C67.0047 11.773 67.3113 11.9 67.5374 12.1261C67.7635 12.3522 67.8905 12.6588 67.8905 12.9785C67.8905 13.2982 67.7635 13.6049 67.5374 13.8309C67.3113 14.057 67.0047 14.184 66.685 14.184H38.473ZM70 3.24102H34.95C33.6928 3.24654 32.4886 3.74807 31.5991 4.63659C30.7096 5.52512 30.2068 6.72881 30.2 7.98602V28.573C30.2136 29.8264 30.7181 31.0245 31.6053 31.9101C32.4925 32.7956 33.6916 33.2978 34.945 33.309H36.415C36.7334 33.3308 37.0301 33.4781 37.2401 33.7184C37.4501 33.9588 37.5561 34.2726 37.535 34.591L37.065 41.362L46.033 33.668C46.1452 33.5559 46.2786 33.4672 46.4254 33.4069C46.5721 33.3467 46.7294 33.3161 46.888 33.317H69.968C71.2257 33.3102 72.4299 32.807 73.3185 31.9169C74.2071 31.0267 74.7083 29.8218 74.713 28.564V7.98602C74.7085 6.72895 74.2072 5.52464 73.3183 4.63575C72.4294 3.74686 71.2251 3.2455 69.968 3.24102H70Z" fill="#00DBD0"/>
</svg>
