<svg xmlns="http://www.w3.org/2000/svg" xmlns:xlink="http://www.w3.org/1999/xlink" width="1366" height="363" viewBox="0 0 1366 363">
  <defs>
    <linearGradient id="linear-gradient" x1="0.467" y1="1" x2="0.469" y2="0.027" gradientUnits="objectBoundingBox">
      <stop offset="0" stop-color="#f1fefe"/>
      <stop offset="1" stop-color="#f1fefe" stop-opacity="0"/>
    </linearGradient>
  </defs>
  <g id="Group_331" data-name="Group 331" transform="translate(0 -4376)">
    <rect id="Rectangle_93" data-name="Rectangle 93" width="1366" height="363" transform="translate(0 4376)" fill="url(#linear-gradient)"/>
    <g id="Susasthya" transform="translate(120 4476)">
      <path id="Path_36591" data-name="Path 36591" d="M202.128.888A7.916,7.916,0,0,1,199.6,4.423a28.3,28.3,0,0,1-5.236,3.232c-1.229.662-2.646,1.493-3.157,1.833a30.173,30.173,0,0,0-3.8,3.175,22.637,22.637,0,0,0-2.741,4.272,27.164,27.164,0,0,0-1.55,5.746L183,23.721l.4-1.04c.227-.567.454-1.21.51-1.418a11.984,11.984,0,0,1,2.589-3.572,8.3,8.3,0,0,1,5.595-2.533,6.433,6.433,0,0,1,4.442.983c1.739,1.153,2.552,2.778,2.7,5.444.038.907.151,1.607.246,1.55a6.552,6.552,0,0,0,1.021-2.571c.208-1.418-.6-3.553-2.287-5.935-1.247-1.758-1.455-2.174-1.474-2.873-.019-.869,0-.888,2.249-2.873,2.778-2.419,4.2-5.425,3.686-7.806A4.616,4.616,0,0,0,202.393,0,4.84,4.84,0,0,0,202.128.888Z" transform="translate(-146.991 0)" fill="#0082d6"/>
      <path id="Path_36592" data-name="Path 36592" d="M269.676,47.362a3.535,3.535,0,0,0-.907,5.217,3.629,3.629,0,0,0,5.066.321,4.282,4.282,0,0,0,1.058-2.419,3.984,3.984,0,0,0-1.928-3.213A4.491,4.491,0,0,0,269.676,47.362Z" transform="translate(-215.924 -38.116)"/>
      <path id="Path_36593" data-name="Path 36593" d="M135.807,129.413a3.444,3.444,0,0,0-.057,6.03,4.222,4.222,0,0,0,3.175.113,3.548,3.548,0,0,0,1.569-4.612A3.363,3.363,0,0,0,135.807,129.413Z" transform="translate(-107.252 -104.618)"/>
      <path id="Path_36594" data-name="Path 36594" d="M247.024,98.68a22.96,22.96,0,0,1,1.474,1.8c2.7,3.856,2.495,9.337-.473,12.078-2.155,1.985-4.8,2.211-7.844.662-1.172-.6-1.247-.6-1.153-.246a6.575,6.575,0,0,0,2.778,2.627,11.646,11.646,0,0,0,4.28.794l3.961-.491.491.491c.4.4.567.851.832,2.382.7,3.931,2.174,6.389,4.555,7.561,1.588.794,1.852.756,1-.189a8.43,8.43,0,0,1-1.1-1.663c-.794-1.815-.888-2.552-.888-7.768a46.748,46.748,0,0,0-.284-6.748,17.077,17.077,0,0,0-6.8-10.944C246.268,97.754,246.117,97.7,247.024,98.68Z" transform="translate(-192.406 -79.477)" fill="#c51015"/>
      <path id="Path_36595" data-name="Path 36595" d="M268.5,199.766h0a3.2,3.2,0,0,0-1.564,1.326,3.582,3.582,0,0,0-.42,2.077,3.278,3.278,0,0,0,6.54,0h0a3.505,3.505,0,0,0-.456-2.143,3.416,3.416,0,0,0-4.1-1.26Z" transform="translate(-215.708 -160.792)" stroke="#000" stroke-width="1"/>
      <path id="Path_36596" data-name="Path 36596" d="M125.474,142.931c-4.158,1.323-2.93,1.1-4.442,1.229-3.4.284-8.884-2.3-9.993-6.085a6.156,6.156,0,0,1,3.094-7.1c1.134-.693,1.587-1.073,1.229-1.18-.675-.21-3.308.284-4.064,1.18a10.371,10.371,0,0,0-2.552,3.734L107.14,137.7s-.02.178-.719.53-1.029.043-2.486-.53c-3.751-1.455-6.543-1.311-8.8.126-1.514.952-2.2,1.845-.945,1.607a6.54,6.54,0,0,1,2.268-.473c2.042-.067,2.888.164,7.38,2.893a47.079,47.079,0,0,0,5.958,3.286c4.076,1.653,8.056,1.326,12.746-.415C124.465,144.022,126.8,142.664,125.474,142.931Z" transform="translate(-74.438 -105.223)" fill="#fff100"/>
      <g id="Group_325" data-name="Group 325" transform="translate(68.992 8.245)">
        <path id="Path_36597" data-name="Path 36597" d="M244.868,269.292v5.292h-.756c-.7,0-.756.038-.926.7-.284,1-.3.983.7,1.04l.888.057.057,5.614.038,5.633h1.89l.038-5.633.057-5.614,1.058-.057c.983-.057,1.058-.095,1.266-.68.359-1,.321-1.04-1.04-1.1l-1.285-.057-.057-5.255L246.758,264h-1.89Z" transform="translate(-197.084 -264)"/>
        <path id="Path_36598" data-name="Path 36598" d="M54.021,275.719v11.719h1.89V283.09c0-4.839.151-5.633,1.153-6.143a2.925,2.925,0,0,1,2.287-.076c.794.416.907,1.191.907,6.011V287.4l-.51.113c-.3.038-1.455.151-2.608.208-1.134.057-3.648.227-5.576.378s-4.763.359-6.332.473a90.938,90.938,0,0,0-10.963,1.418,145.669,145.669,0,0,1-22.228,2.174c-3.913,0-10.055-.624-11.473-1.153-.964-.378-.624.038.435.491,2.835,1.266,6.559,1.7,13.987,1.682,6.143-.019,5.935,0,18.429-1.588,4.215-.529,9.659-1.21,12.1-1.512s6.181-.775,8.317-1.04c4.593-.586,11.719-1,12.815-.737l.737.17-.737,2.608a22.445,22.445,0,0,0-.68,2.684,3.885,3.885,0,0,0,.888.132c.945.057.756.416,1.89-3.421.321-1.1.624-2,.643-2.041a14.464,14.464,0,0,1,1.663.151c5.368.662,10.4,2.552,12.91,4.876.813.737.888.775.529.265-1.644-2.363-6.8-4.574-12.739-5.462-1.172-.17-2.155-.34-2.193-.359a42.726,42.726,0,0,1,1.38-4.82c1.153-3.761,2.419-8.335,2.325-8.411a3,3,0,0,0-.945-.208l-.832-.113-1,3.459c-1.55,5.406-2.041,6.9-2.136,6.6-.151-.416-1.172-4.12-1.758-6.426-.964-3.667-.869-3.5-1.777-3.478a2.3,2.3,0,0,0-.869.113,5.522,5.522,0,0,0,.3,1.588c.227.832.567,2.041.737,2.722.189.68.775,2.778,1.3,4.687s.964,3.591.964,3.742c0,.208-.378.246-2.306.151a22.269,22.269,0,0,1-2.552-.189c-.189-.038-.246-1.229-.246-5.028-.019-5.292-.095-5.822-.964-6.937a3.5,3.5,0,0,0-4.555-.491l-.718.473V264h-1.89Z" transform="translate(0 -264)" fill="#c51015"/>
        <path id="Path_36599" data-name="Path 36599" d="M13.546,270.491c-.3.151-1.04.473-1.607.718a5.276,5.276,0,0,0-3.232,4.744c0,.983.227,1.682,1.418,4.31,3.1,6.823,3.005,6.559,2.911,7.655-.113,1.4-.983,2.287-2.816,2.911a3.127,3.127,0,0,0-1.3.643,4.754,4.754,0,0,0,.378.983l.359.813,1.436-.529a6.352,6.352,0,0,0,3.818-3.213c.756-1.625.586-2.741-.926-6.086-3.421-7.56-3.364-7.371-2.816-8.6.34-.756,1.663-1.985,2.136-1.985a5.326,5.326,0,0,0,1.077-.4l.926-.378-.4-.945C14.472,270.132,14.4,270.094,13.546,270.491Z" transform="translate(-7.061 -269.073)"/>
        <path id="Path_36600" data-name="Path 36600" d="M115.164,317.51c-1.682,1.3-2.571,3.364-2.1,4.914a9.381,9.381,0,0,0,1.266,2.136c.851,1.153,1.04,1.531,1.04,2.155,0,.68-.113.869-1.134,1.852l-1.134,1.115.794.737.794.718.7-.586c2.722-2.344,2.949-4.253.832-6.956a5.867,5.867,0,0,1-.945-1.55,3.106,3.106,0,0,1,1.247-2.533,3.532,3.532,0,0,0,.737-.907,2.806,2.806,0,0,0-.718-.907l-.718-.7Z" transform="translate(-91.592 -306.982)"/>
        <path id="Path_36601" data-name="Path 36601" d="M209.633,318.582a4.664,4.664,0,0,0-1.531,5.16,8.836,8.836,0,0,0,1.115,1.72c.964,1.172,1.248,2.117.832,2.779a14.708,14.708,0,0,1-1.21,1.3l-.926.907.832.756.851.775,1.059-1.058c2.382-2.363,2.438-3.988.208-6.767-1.1-1.4-1.021-2.268.34-3.761l.926-1.021-.51-.548C210.635,317.732,210.635,317.732,209.633,318.582Z" transform="translate(-168.541 -307.771)"/>
        <path id="Path_36602" data-name="Path 36602" d="M153.65,318.393c-1.758.794-2.854,3.78-2.7,7.353.151,3.327,1.077,5.387,2.7,6.011a2.573,2.573,0,0,0,2.816-.491c.775-.68.869-.7.869-.094,0,.435.057.473.945.473h.945V318.6h-.945c-.907,0-.945.019-.945.51v.51l-.662-.643a2.051,2.051,0,0,0-1.644-.7A4.416,4.416,0,0,0,153.65,318.393Zm3.062,2.76c.51.567.718,1.966.7,4.725,0,2.873-.473,3.686-2.155,3.686-1.3,0-1.871-.7-2.287-2.816-.454-2.344.321-5.406,1.531-6.03A2.092,2.092,0,0,1,156.712,321.153Z" transform="translate(-122.405 -308.016)"/>
        <path id="Path_36603" data-name="Path 36603" d="M397.4,318.505c-1.4.718-2.325,2.911-2.476,5.878-.17,4.007.775,6.615,2.7,7.334a2.515,2.515,0,0,0,2.835-.51l.662-.567v.491c0,.473.038.491,1.04.491h1.04V318.581h-.945c-.907,0-.945.019-.945.51v.51l-.662-.643a2.025,2.025,0,0,0-1.644-.7A3.1,3.1,0,0,0,397.4,318.505Zm3.175,2.457c.51.473.737,1.8.737,4.423,0,3.516-.34,4.158-2.249,4.158a2.116,2.116,0,0,1-1.947-1.777,14.187,14.187,0,0,1,.019-5.217,3.608,3.608,0,0,1,1.418-1.89A2.449,2.449,0,0,1,400.575,320.963Z" transform="translate(-320.262 -307.996)"/>
        <path id="Path_36604" data-name="Path 36604" d="M55.807,324.273c0,4.744.038,5.368.359,6.105a3.677,3.677,0,0,0,3.742,2.23,3.883,3.883,0,0,0,3.818-2.438,41.724,41.724,0,0,0,.208-5.9V319h-1.89v4.442c0,6.332-.189,6.9-2.211,6.9-1.909,0-2.136-.756-2.136-6.993V319h-1.89Z" transform="translate(-45.259 -308.604)"/>
        <path id="Path_36605" data-name="Path 36605" d="M402.275,407.476a1.151,1.151,0,0,0,.038,1.7,1.072,1.072,0,0,0,1.852-.85A1.094,1.094,0,0,0,402.275,407.476Z" transform="translate(-325.95 -380.069)" fill="#c51015"/>
        <path id="Path_36606" data-name="Path 36606" d="M325.307,415.338a1.258,1.258,0,0,0-.019,1.625,1.184,1.184,0,0,0,1.966-.869A1.145,1.145,0,0,0,325.307,415.338Z" transform="translate(-263.571 -386.459)" fill="#c51015"/>
        <path id="Path_36607" data-name="Path 36607" d="M40.726,447.157v-3.734h1.321v-.576h-3.3v.576h1.324v3.734Zm2.351,0v-1.7c0-.539.289-.865.768-.865.445,0,.661.261.661.74v1.823h.618V445.13a.958.958,0,0,0-1.055-1.077,1.221,1.221,0,0,0-.955.374h-.037v-1.579h-.618v4.309Zm4.062-.468a.817.817,0,0,1-.819-.87H48.5a3.079,3.079,0,0,0,.017-.349,1.3,1.3,0,0,0-1.352-1.418,1.582,1.582,0,0,0,0,3.158,1.284,1.284,0,0,0,1.341-.984h-.641A.665.665,0,0,1,47.139,446.689Zm.028-2.115a.713.713,0,0,1,.777.788v.014h-1.61A.8.8,0,0,1,47.167,444.574Zm4.982,2.665a1.418,1.418,0,0,0,1.613-1.514v-2.878h-.644v2.835a.853.853,0,0,1-.97.964.843.843,0,0,1-.961-.961v-2.838h-.644v2.909A1.4,1.4,0,0,0,52.149,447.239Zm2.983-.082v-4.309h-.618v4.309Zm2.321,0V446.6h-.471c-.142,0-.19-.062-.19-.2v-1.766h.661v-.525h-.661v-.947h-.624v.751a.175.175,0,0,1-.184.2H55.6v.525h.567v2c0,.405.2.527.564.527Zm1.23-3.592v-.717H57.94v.717Zm-.065,3.592v-3.048H58v3.048Zm1.338,0v-1.888a.636.636,0,0,1,.672-.669c.318,0,.559.181.559.646v1.911h.621v-1.911a.637.637,0,0,1,.672-.646c.448,0,.559.388.559.7v1.86h.627v-1.97c0-.493-.176-1.134-1-1.134a1.164,1.164,0,0,0-.964.448h-.028a.807.807,0,0,0-.822-.448,1.216,1.216,0,0,0-.865.32h-.026l-.13-.264h-.5v3.048Zm7.2-.516a.21.21,0,0,1-.241-.241v-1.25c0-.422-.079-1.1-1.29-1.1-.862,0-1.262.346-1.35.984h.635c.068-.371.295-.5.723-.5.473,0,.686.17.686.542,0,.286-.19.3-.391.3h-.578c-.678,0-1.16.295-1.16.893s.462.941,1.191.941a1.463,1.463,0,0,0,1.015-.343h.023a.5.5,0,0,0,.53.289h.335v-.516Zm-.856-.607c0,.445-.32.709-.831.709-.323,0-.658-.125-.658-.479s.326-.445.638-.445H66.3Zm2.89,1.123V446.6h-.471c-.142,0-.19-.062-.19-.2v-1.766h.661v-.525h-.661v-.947h-.624v.751a.175.175,0,0,1-.184.2h-.383v.525h.567v2c0,.405.2.527.564.527Zm1.774-.468a.817.817,0,0,1-.819-.87h2.183a3.076,3.076,0,0,0,.017-.349A1.3,1.3,0,0,0,71,444.052a1.582,1.582,0,0,0,0,3.158,1.284,1.284,0,0,0,1.341-.984H71.7A.665.665,0,0,1,70.967,446.689ZM71,444.574a.713.713,0,0,1,.777.788v.014h-1.61A.8.8,0,0,1,71,444.574Zm4.06,2.583v-1.911h2.021v1.911h.644v-4.309h-.644v1.8H75.055v-1.8h-.644v4.309Zm4.788-.468a.817.817,0,0,1-.819-.87h2.183a3.076,3.076,0,0,0,.017-.349,1.3,1.3,0,0,0-1.352-1.418,1.582,1.582,0,0,0,0,3.158,1.284,1.284,0,0,0,1.341-.984h-.641A.665.665,0,0,1,79.843,446.689Zm.028-2.115a.713.713,0,0,1,.777.788v.014h-1.61A.8.8,0,0,1,79.872,444.574Zm4.791,2.067a.21.21,0,0,1-.241-.241v-1.25c0-.422-.079-1.1-1.29-1.1-.862,0-1.262.346-1.35.984h.635c.068-.371.295-.5.723-.5.473,0,.686.17.686.542,0,.286-.19.3-.391.3h-.578c-.678,0-1.16.295-1.16.893s.462.941,1.191.941a1.463,1.463,0,0,0,1.015-.343h.023a.5.5,0,0,0,.53.289h.335v-.516Zm-.856-.607c0,.445-.32.709-.831.709-.323,0-.658-.125-.658-.479s.326-.445.638-.445h.851Zm2.048,1.123v-4.309h-.618v4.309Zm2.321,0V446.6H87.7c-.142,0-.19-.062-.19-.2v-1.766h.661v-.525h-.661v-.947h-.624v.751a.175.175,0,0,1-.184.2h-.383v.525h.567v2c0,.405.2.527.564.527Zm1.14,0v-1.7c0-.539.289-.865.768-.865.445,0,.661.261.661.74v1.823h.618V445.13a.958.958,0,0,0-1.055-1.077,1.221,1.221,0,0,0-.955.374h-.037v-1.579H88.7v4.309Zm5.988-1.931h1.2v.153a1.11,1.11,0,0,1-1.2,1.245c-.842,0-1.358-.621-1.358-1.625s.516-1.619,1.358-1.619a1,1,0,0,1,1.058.723h.7a1.664,1.664,0,0,0-1.755-1.338,2.251,2.251,0,0,0,0,4.474,1.3,1.3,0,0,0,1.191-.607h.034v.524h.553V444.65H95.3Zm4.488-1.117v1.7c0,.539-.289.865-.768.865-.445,0-.661-.261-.661-.74v-1.823h-.618v2.027a.971.971,0,0,0,1.1,1.077,1.185,1.185,0,0,0,.919-.352h.023l.13.295h.5v-3.048Zm2.012-.544v-.717h-.743v.717Zm-.065,3.592v-3.048h-.618v3.048Zm2.024.054a1.193,1.193,0,0,0,.936-.405h.028l.085.352h.5v-4.309h-.618v1.636a1.143,1.143,0,0,0-.936-.431,1.442,1.442,0,0,0-1.423,1.6A1.406,1.406,0,0,0,103.762,447.211Zm.065-.525c-.533,0-.876-.4-.876-1.058s.343-1.049.876-1.049.865.4.865,1.049S104.357,446.686,103.827,446.686Zm3.543,0a.817.817,0,0,1-.819-.87h2.183a3.075,3.075,0,0,0,.017-.349,1.3,1.3,0,0,0-1.352-1.418,1.582,1.582,0,0,0,0,3.158,1.284,1.284,0,0,0,1.341-.984H108.1A.665.665,0,0,1,107.37,446.689Zm.028-2.115a.713.713,0,0,1,.777.788v.014h-1.61A.8.8,0,0,1,107.4,444.574Z" transform="translate(-31.426 -408.976)"/>
        <rect id="Rectangle_92" data-name="Rectangle 92" width="1.89" height="23.438" transform="translate(53.963 0.095)" stroke="#000" stroke-width="1"/>
        <path id="Path_36608" data-name="Path 36608" d="M301.292,319.236c-.636-.736-2.741-2.079-5.292,0v4.536a7.646,7.646,0,0,1,.378-1.985c.284-.661.665-1.24,2.363-1.134,1.512.094,1.512,2.363,1.512,3.5v7.182l2.174-.094C302.237,328.025,303.088,321.315,301.292,319.236Z" transform="translate(-240.052 -307.895)"/>
        <path id="Path_36609" data-name="Path 36609" d="M338,318.875a2.508,2.508,0,0,1,1.607-.095c.473.189,1.89,6.615,2.835,9.829,0,0,2.93-10.207,3.119-10.112s1.323,0,1.89.378-5.576,18.807-5.576,19.09-1.229.315-1.7,0,1.04-5.009,1.134-5.387a1.043,1.043,0,0,0,0-.756c-.662-2.552-1.7-6.332-1.7-6.332Z" transform="translate(-274.114 -308.196)"/>
      </g>
    </g>
  </g>
</svg>
