<svg width="611" height="426" viewBox="0 0 611 426" fill="none" xmlns="http://www.w3.org/2000/svg">
<path d="M161.617 41.4249L177.263 56.1749L170.084 66.2879L154.1 50.1049C152.763 50.0161 151.478 49.5562 150.388 48.7768C149.299 47.9974 148.448 46.9295 147.932 45.6932C147.416 44.4569 147.256 43.1011 147.468 41.7785C147.681 40.4558 148.258 39.2187 149.135 38.2062C150.012 37.1937 151.155 36.446 152.434 36.0472C153.713 35.6483 155.077 35.6142 156.375 35.9487C157.672 36.2831 158.85 36.9728 159.777 37.9403C160.703 38.9077 161.342 40.1145 161.62 41.4249H161.617Z" fill="#FFB6B6"/>
<path d="M110.333 412.494H121.62L126.989 368.958H110.331L110.333 412.494Z" fill="#FFB6B6"/>
<path d="M109.936 424.269H144.645V423.83C144.645 420.247 143.221 416.811 140.688 414.277C138.154 411.744 134.718 410.32 131.135 410.32L124.795 405.51L112.966 410.321H109.936V424.269Z" fill="#2F2E41"/>
<path d="M136.641 400.575L147.22 404.509L167.431 365.576L151.817 359.77L136.641 400.575Z" fill="#FFB6B6"/>
<path d="M132.164 411.472L164.696 423.572L164.849 423.161C166.098 419.803 165.962 416.086 164.471 412.828C162.979 409.57 160.255 407.038 156.897 405.789L152.632 399.071L139.868 399.456L137.028 398.4L132.166 411.474L132.164 411.472Z" fill="#2F2E41"/>
<path d="M158.018 187.134L180.925 317.417L159.45 398.306L139.406 390.432L142.269 383.989L137.974 375.399L144.417 332.449L144.427 305L126.521 250.128L121.51 340.323L129.384 385.423L127.9 398.306L104.33 401.17L107.193 391.864L92.161 346.764L95.024 338.174L74.981 232.948L79.992 199.3L158.018 187.134Z" fill="#2F2E41"/>
<path d="M90.371 58.6421H118.909L127.595 72.9591L136.901 70.8111L141.616 72.9591L162.671 77.2591L156.228 115.198L154.8 158.859L155.516 177.471C163.042 182.971 161.099 190.548 159.43 199C159.43 199 87.511 218.668 76.058 212.386V204.269L82.858 149.91L57.8 88.3491C56.7 79.9211 65.6 77.6491 73.906 75.8221L82.496 72.9591L90.371 58.6421Z" fill="#00DBD0"/>
<path d="M156.228 82.265L162.671 77.254L177.329 82.265L171.977 73.675V69.535L163.387 67.235L162.671 60.792L156.228 55.739L166.778 43.564L174.478 50.057H179.131L185.531 56.457L208.493 87.8C209.669 89.3764 210.516 91.1734 210.984 93.084C211.451 94.9946 211.529 96.9797 211.213 98.9211C210.898 100.862 210.194 102.721 209.146 104.385C208.097 106.049 206.724 107.485 205.109 108.607C202.314 110.545 199 111.594 195.599 111.616H155.008L156.228 82.267V82.265Z" fill="#00DBD0"/>
<path d="M107.34 54.164C119.185 54.164 128.787 44.5619 128.787 32.717C128.787 20.8722 119.185 11.27 107.34 11.27C95.4951 11.27 85.893 20.8722 85.893 32.717C85.893 44.5619 95.4951 54.164 107.34 54.164Z" fill="#FFB6B6"/>
<path d="M66.114 224.57L65.605 203.07L77.844 201.07L77.573 223.816C78.4495 224.829 79.026 226.067 79.2377 227.389C79.4494 228.712 79.2878 230.068 78.7712 231.304C78.2545 232.54 77.4033 233.607 76.3133 234.386C75.2232 235.164 73.9375 235.624 72.6008 235.712C71.2641 235.799 69.9293 235.513 68.7467 234.884C67.564 234.254 66.5803 233.308 65.9062 232.15C65.2321 230.993 64.8943 229.67 64.9308 228.331C64.9673 226.992 65.3777 225.689 66.114 224.57Z" fill="#FFB6B6"/>
<path d="M65.753 81.48C64.6192 81.415 63.4849 81.5994 62.4301 82.0204C61.3753 82.4413 60.4257 83.0886 59.6483 83.9164C58.8709 84.7443 58.2845 85.7327 57.9306 86.8118C57.5767 87.8909 57.4638 89.0346 57.6 90.162L45.887 155.426L44.024 159.348L46.16 161.554L46.609 166.611L64.443 213.711L86.729 214.536L78.427 116L72.656 86.722C72.1572 85.2614 71.2343 83.9826 70.0053 83.0489C68.7763 82.1152 67.2969 81.569 65.756 81.48H65.753Z" fill="#00DBD0"/>
<path d="M88.368 213.893C88.582 229.368 81.925 232.675 71.188 229.437C62.104 226.697 54.008 223.381 54.008 213.893C54.008 204.405 59.53 190.373 71.188 195.077C81.618 189.35 93.6 202.921 88.368 213.893Z" fill="#FF6584"/>
<path d="M70.569 195.463C69.9047 194.293 69.5256 192.982 69.4626 191.638C69.3996 190.294 69.6544 188.953 70.2064 187.726C70.7583 186.499 71.5918 185.419 72.6393 184.574C73.6867 183.729 74.9186 183.143 76.235 182.863C77.583 182.573 78.158 184.643 76.806 184.934C74.882 185.348 73.756 193.262 72.834 195.011C71.842 196.892 71.409 192.534 72.424 194.381C73.09 195.593 71.236 196.681 70.57 195.465L70.569 195.463Z" fill="#3F3D56"/>
<path d="M174.268 27.0601C174.268 36.5481 167.825 45.8421 157.088 42.6041C148 39.8641 136.427 41.0001 145.427 25.0001C133.427 19.0001 145.427 3.54009 157.088 8.24409C167.519 2.51709 174.268 17.5721 174.268 27.0601Z" fill="#FF6584"/>
<path d="M156.469 8.62899C152.291 9.60699 154.438 10.029 156.278 4.52899C157.085 2.11799 159.659 0.558995 162.135 0.0289945C163.483 -0.261005 164.058 1.80899 162.706 2.09999C161.755 2.29752 160.859 2.70178 160.081 3.28415C159.303 3.86652 158.663 4.61275 158.206 5.46999C157.214 7.35099 157.306 5.69999 158.323 7.54699C158.989 8.759 157.135 9.84699 156.469 8.63099V8.62899Z" fill="#3F3D56"/>
<path d="M54.259 408.257C53.7941 408.279 53.3339 408.157 52.9406 407.908C52.5474 407.659 52.2402 407.295 52.0606 406.866C51.8811 406.437 51.8378 405.963 51.9368 405.508C52.0358 405.053 52.2722 404.64 52.614 404.324L52.769 403.706L52.707 403.558C52.2387 402.452 51.454 401.509 50.4516 400.848C49.4491 400.186 48.2735 399.836 47.0725 399.84C45.8715 399.845 44.6986 400.204 43.7011 400.873C42.7036 401.542 41.926 402.491 41.466 403.6C39.627 408.028 37.287 412.464 36.71 417.146C36.456 419.215 36.5629 421.313 37.026 423.346C32.7077 413.926 30.4653 403.688 30.451 393.325C30.4501 390.725 30.5947 388.126 30.884 385.542C31.1233 383.423 31.455 381.32 31.879 379.232C34.1934 367.901 39.1628 357.28 46.379 348.242C49.8721 346.335 52.6967 343.404 54.472 339.842C55.1153 338.562 55.57 337.196 55.822 335.786C55.428 335.838 54.336 329.837 54.634 329.469C54.085 328.636 53.102 328.222 52.503 327.409C49.521 323.366 45.412 324.072 43.267 329.566C38.685 331.879 38.64 335.714 41.452 339.403C43.241 341.75 43.487 344.925 45.052 347.438C44.89 347.645 44.723 347.845 44.561 348.052C41.6092 351.848 39.0366 355.924 36.88 360.221C37.4047 355.407 36.7788 350.536 35.054 346.011C33.306 341.794 30.029 338.242 27.144 334.596C26.3809 333.617 25.3445 332.885 24.1658 332.495C22.9872 332.104 21.7192 332.072 20.5222 332.402C19.3252 332.732 18.2529 333.409 17.4408 334.349C16.6288 335.288 16.1134 336.447 15.96 337.679C15.954 337.733 15.9483 337.787 15.943 337.84C16.3716 338.082 16.7913 338.339 17.202 338.61C17.7171 338.955 18.1162 339.447 18.347 340.022C18.5778 340.597 18.6295 341.229 18.4954 341.834C18.3613 342.439 18.0476 342.99 17.5954 343.414C17.1432 343.838 16.5735 344.115 15.961 344.21L15.898 344.22C16.0506 345.765 16.3203 347.295 16.705 348.799C13.005 363.115 20.995 368.329 32.405 368.563C32.657 368.692 32.905 368.821 33.154 368.944C30.9872 375.085 29.6282 381.481 29.111 387.972C28.8184 391.8 28.8358 395.646 29.163 399.472L29.144 399.336C28.317 395.081 26.0469 391.241 22.717 388.466C17.771 384.403 10.784 382.907 5.44897 379.642C4.88195 379.278 4.22267 379.084 3.54887 379.082C2.87507 379.081 2.21486 379.272 1.6461 379.633C1.07734 379.994 0.623749 380.511 0.338819 381.121C0.0538881 381.732 -0.0504966 382.411 0.0379746 383.079L0.0599746 383.222C0.855428 383.546 1.62993 383.919 2.37897 384.339C2.80764 384.581 3.22731 384.838 3.63797 385.109C4.15314 385.454 4.55224 385.946 4.78302 386.521C5.01381 387.096 5.06553 387.728 4.93143 388.333C4.79732 388.938 4.48363 389.489 4.03141 389.913C3.5792 390.337 3.00953 390.614 2.39697 390.709L2.33397 390.719L2.20497 390.738C3.56412 393.983 5.47163 396.969 7.84397 399.567C10.159 412.067 20.1 413.25 30.734 409.61H30.74C31.9066 414.68 33.597 419.615 35.784 424.336H53.804C53.869 424.136 53.927 423.929 53.985 423.729C52.317 423.833 50.6425 423.732 48.999 423.429C50.336 421.788 51.673 420.135 53.01 418.494C53.0399 418.462 53.0679 418.429 53.094 418.394C53.772 417.554 54.457 416.721 55.135 415.882C55.1711 413.308 54.8756 410.74 54.256 408.242L54.259 408.257Z" fill="#D4F9F9"/>
<path d="M255.81 424.4C255.811 424.556 255.78 424.711 255.72 424.856C255.661 425.001 255.573 425.132 255.463 425.243C255.352 425.353 255.221 425.441 255.076 425.5C254.931 425.56 254.776 425.59 254.62 425.59H1.32997C1.01436 425.59 0.71168 425.465 0.488512 425.241C0.265344 425.018 0.139969 424.716 0.139969 424.4C0.139969 424.084 0.265344 423.782 0.488512 423.559C0.71168 423.335 1.01436 423.21 1.32997 423.21H254.62C254.776 423.21 254.931 423.24 255.076 423.3C255.22 423.359 255.352 423.447 255.462 423.558C255.573 423.668 255.661 423.8 255.72 423.944C255.78 424.089 255.81 424.244 255.81 424.4Z" fill="#CCCCCC"/>
<path d="M508.927 39.792C508.927 39.2616 508.716 38.7528 508.341 38.3778C507.966 38.0027 507.457 37.792 506.927 37.792H475.927C475.397 37.792 474.888 38.0027 474.513 38.3778C474.138 38.7528 473.927 39.2616 473.927 39.792C473.927 40.3224 474.138 40.8311 474.513 41.2062C474.888 41.5813 475.397 41.792 475.927 41.792H506.927C507.457 41.792 507.966 41.5813 508.341 41.2062C508.716 40.8311 508.927 40.3224 508.927 39.792Z" fill="#ABFEFE"/>
<path d="M559.927 40C559.927 39.4696 559.716 38.9609 559.341 38.5858C558.966 38.2107 558.457 38 557.927 38H526.927C526.397 38 525.888 38.2107 525.513 38.5858C525.138 38.9609 524.927 39.4696 524.927 40C524.927 40.5304 525.138 41.0391 525.513 41.4142C525.888 41.7893 526.397 42 526.927 42H557.927C558.457 42 558.966 41.7893 559.341 41.4142C559.716 41.0391 559.927 40.5304 559.927 40Z" fill="#ABFEFE"/>
<path d="M610.927 40.208C610.927 39.6776 610.716 39.1689 610.341 38.7938C609.966 38.4187 609.457 38.208 608.927 38.208H577.927C577.397 38.208 576.888 38.4187 576.513 38.7938C576.138 39.1689 575.927 39.6776 575.927 40.208C575.927 40.7384 576.138 41.2472 576.513 41.6222C576.888 41.9973 577.397 42.208 577.927 42.208H608.927C609.457 42.208 609.966 41.9973 610.341 41.6222C610.716 41.2472 610.927 40.7384 610.927 40.208Z" fill="#ABFEFE"/>
<path d="M559.927 85C559.927 84.4696 559.716 83.9609 559.341 83.5858C558.966 83.2107 558.457 83 557.927 83H526.927C526.397 83 525.888 83.2107 525.513 83.5858C525.138 83.9609 524.927 84.4696 524.927 85C524.927 85.5304 525.138 86.0391 525.513 86.4142C525.888 86.7893 526.397 87 526.927 87H557.927C558.457 87 558.966 86.7893 559.341 86.4142C559.716 86.0391 559.927 85.5304 559.927 85Z" fill="#ABFEFE"/>
<path d="M457.927 85C457.927 84.4696 457.716 83.9609 457.341 83.5858C456.966 83.2107 456.457 83 455.927 83H424.927C424.397 83 423.888 83.2107 423.513 83.5858C423.138 83.9609 422.927 84.4696 422.927 85C422.927 85.5304 423.138 86.0391 423.513 86.4142C423.888 86.7893 424.397 87 424.927 87H455.927C456.457 87 456.966 86.7893 457.341 86.4142C457.716 86.0391 457.927 85.5304 457.927 85Z" fill="#ABFEFE"/>
<path d="M508.927 85.208C508.927 84.6776 508.716 84.1689 508.341 83.7938C507.966 83.4187 507.457 83.208 506.927 83.208H475.927C475.397 83.208 474.888 83.4187 474.513 83.7938C474.138 84.1689 473.927 84.6776 473.927 85.208C473.927 85.7384 474.138 86.2472 474.513 86.6222C474.888 86.9973 475.397 87.208 475.927 87.208H506.927C507.457 87.208 507.966 86.9973 508.341 86.6222C508.716 86.2472 508.927 85.7384 508.927 85.208Z" fill="#ABFEFE"/>
<path d="M559.927 131C559.927 130.47 559.716 129.961 559.341 129.586C558.966 129.211 558.457 129 557.927 129H526.927C526.397 129 525.888 129.211 525.513 129.586C525.138 129.961 524.927 130.47 524.927 131C524.927 131.53 525.138 132.039 525.513 132.414C525.888 132.789 526.397 133 526.927 133H557.927C558.457 133 558.966 132.789 559.341 132.414C559.716 132.039 559.927 131.53 559.927 131Z" fill="#D4F9F9"/>
<path d="M610.927 131.208C610.927 130.678 610.716 130.169 610.341 129.794C609.966 129.419 609.457 129.208 608.927 129.208H577.927C577.397 129.208 576.888 129.419 576.513 129.794C576.138 130.169 575.927 130.678 575.927 131.208C575.927 131.738 576.138 132.247 576.513 132.622C576.888 132.997 577.397 133.208 577.927 133.208H608.927C609.457 133.208 609.966 132.997 610.341 132.622C610.716 132.247 610.927 131.738 610.927 131.208Z" fill="#D4F9F9"/>
<path d="M406.927 130.792C406.927 130.262 406.716 129.753 406.341 129.378C405.966 129.003 405.457 128.792 404.927 128.792H373.927C373.397 128.792 372.888 129.003 372.513 129.378C372.138 129.753 371.927 130.262 371.927 130.792C371.927 131.322 372.138 131.831 372.513 132.206C372.888 132.581 373.397 132.792 373.927 132.792H404.927C405.457 132.792 405.966 132.581 406.341 132.206C406.716 131.831 406.927 131.322 406.927 130.792Z" fill="#D4F9F9"/>
<path d="M457.927 131C457.927 130.47 457.716 129.961 457.341 129.586C456.966 129.211 456.457 129 455.927 129H424.927C424.397 129 423.888 129.211 423.513 129.586C423.138 129.961 422.927 130.47 422.927 131C422.927 131.53 423.138 132.039 423.513 132.414C423.888 132.789 424.397 133 424.927 133H455.927C456.457 133 456.966 132.789 457.341 132.414C457.716 132.039 457.927 131.53 457.927 131Z" fill="#D4F9F9"/>
<path d="M508.927 131.208C508.927 130.678 508.716 130.169 508.341 129.794C507.966 129.419 507.457 129.208 506.927 129.208H475.927C475.397 129.208 474.888 129.419 474.513 129.794C474.138 130.169 473.927 130.678 473.927 131.208C473.927 131.738 474.138 132.247 474.513 132.622C474.888 132.997 475.397 133.208 475.927 133.208H506.927C507.457 133.208 507.966 132.997 508.341 132.622C508.716 132.247 508.927 131.738 508.927 131.208Z" fill="#D4F9F9"/>
<path d="M491.681 30.164C498.564 30.164 504.144 24.7014 504.144 17.963C504.144 11.2245 498.564 5.76196 491.681 5.76196C484.798 5.76196 479.218 11.2245 479.218 17.963C479.218 24.7014 484.798 30.164 491.681 30.164Z" fill="#ABFEFE"/>
<path d="M490.762 23H490.734C490.571 22.9954 490.411 22.9509 490.269 22.8704C490.127 22.7898 490.007 22.6757 489.919 22.538L485.694 15.913C485.551 15.6893 485.504 15.4181 485.561 15.1591C485.618 14.9002 485.776 14.6746 486 14.532C486.224 14.3895 486.495 14.3416 486.754 14.399C487.013 14.4564 487.238 14.6143 487.381 14.838L490.812 20.218L497.259 11.25C497.335 11.1414 497.431 11.049 497.543 10.978C497.655 10.9071 497.78 10.8591 497.911 10.8368C498.041 10.8145 498.175 10.8184 498.304 10.8482C498.433 10.878 498.555 10.9331 498.662 11.0104C498.77 11.0877 498.861 11.1856 498.931 11.2984C499 11.4113 499.046 11.5367 499.067 11.6676C499.087 11.7985 499.082 11.9321 499.05 12.0608C499.019 12.1894 498.962 12.3105 498.883 12.417L491.575 22.584C491.482 22.713 491.361 22.8181 491.219 22.8906C491.078 22.9631 490.922 23.0009 490.763 23.001L490.762 23Z" fill="white"/>
<path d="M544.681 30.164C551.564 30.164 557.144 24.7014 557.144 17.963C557.144 11.2245 551.564 5.76196 544.681 5.76196C537.798 5.76196 532.218 11.2245 532.218 17.963C532.218 24.7014 537.798 30.164 544.681 30.164Z" fill="#ABFEFE"/>
<path d="M543.762 23H543.734C543.571 22.9954 543.411 22.9509 543.269 22.8704C543.127 22.7898 543.007 22.6757 542.919 22.538L538.694 15.913C538.551 15.6893 538.504 15.4181 538.561 15.1591C538.618 14.9002 538.776 14.6746 539 14.532C539.224 14.3895 539.495 14.3416 539.754 14.399C540.013 14.4564 540.238 14.6143 540.381 14.838L543.812 20.218L550.259 11.25C550.335 11.1414 550.431 11.049 550.543 10.978C550.655 10.9071 550.78 10.8591 550.911 10.8368C551.041 10.8145 551.175 10.8184 551.304 10.8482C551.433 10.878 551.555 10.9331 551.662 11.0104C551.77 11.0877 551.861 11.1856 551.931 11.2984C552 11.4113 552.046 11.5367 552.067 11.6676C552.087 11.7985 552.082 11.9321 552.05 12.0608C552.019 12.1894 551.962 12.3105 551.883 12.417L544.575 22.584C544.482 22.713 544.361 22.8181 544.219 22.8906C544.078 22.9631 543.922 23.0009 543.763 23.001L543.762 23Z" fill="white"/>
<path d="M593.681 29.164C600.564 29.164 606.144 23.7014 606.144 16.963C606.144 10.2245 600.564 4.76196 593.681 4.76196C586.798 4.76196 581.218 10.2245 581.218 16.963C581.218 23.7014 586.798 29.164 593.681 29.164Z" fill="#ABFEFE"/>
<path d="M592.762 22H592.734C592.571 21.9954 592.411 21.9509 592.269 21.8704C592.127 21.7898 592.007 21.6757 591.919 21.538L587.694 14.913C587.551 14.6893 587.504 14.4181 587.561 14.1591C587.618 13.9002 587.776 13.6746 588 13.532C588.224 13.3895 588.495 13.3416 588.754 13.399C589.013 13.4564 589.238 13.6143 589.381 13.838L592.812 19.218L599.259 10.25C599.335 10.1414 599.431 10.049 599.543 9.97801C599.655 9.90707 599.78 9.85906 599.911 9.83677C600.041 9.81448 600.175 9.81835 600.304 9.84817C600.433 9.87798 600.555 9.93314 600.662 10.0104C600.77 10.0877 600.861 10.1856 600.931 10.2984C601 10.4113 601.046 10.5367 601.067 10.6676C601.087 10.7985 601.082 10.9321 601.05 11.0608C601.019 11.1894 600.962 11.3105 600.883 11.417L593.575 21.584C593.482 21.713 593.361 21.8181 593.219 21.8906C593.078 21.9631 592.922 22.0009 592.763 22.001L592.762 22Z" fill="white"/>
<path d="M610.927 82.208C610.927 81.6776 610.716 81.1689 610.341 80.7938C609.966 80.4187 609.457 80.208 608.927 80.208H577.927C577.397 80.208 576.888 80.4187 576.513 80.7938C576.138 81.1689 575.927 81.6776 575.927 82.208C575.927 82.7384 576.138 83.2472 576.513 83.6222C576.888 83.9973 577.397 84.208 577.927 84.208H608.927C609.457 84.208 609.966 83.9973 610.341 83.6222C610.716 83.2472 610.927 82.7384 610.927 82.208Z" fill="#ABFEFE"/>
<path d="M593.681 71.164C600.564 71.164 606.144 65.7014 606.144 58.963C606.144 52.2245 600.564 46.762 593.681 46.762C586.798 46.762 581.218 52.2245 581.218 58.963C581.218 65.7014 586.798 71.164 593.681 71.164Z" fill="#ABFEFE"/>
<path d="M592.762 64H592.734C592.571 63.9954 592.411 63.9509 592.269 63.8704C592.127 63.7898 592.007 63.6757 591.919 63.538L587.694 56.913C587.551 56.6893 587.504 56.4181 587.561 56.1591C587.618 55.9002 587.776 55.6746 588 55.532C588.224 55.3895 588.495 55.3416 588.754 55.399C589.013 55.4564 589.238 55.6143 589.381 55.838L592.812 61.218L599.259 52.25C599.335 52.1414 599.431 52.049 599.543 51.978C599.655 51.9071 599.78 51.8591 599.911 51.8368C600.041 51.8145 600.175 51.8184 600.304 51.8482C600.433 51.878 600.555 51.9331 600.662 52.0104C600.77 52.0877 600.861 52.1856 600.931 52.2985C601 52.4113 601.046 52.5367 601.067 52.6676C601.087 52.7985 601.082 52.9321 601.05 53.0608C601.019 53.1894 600.962 53.3105 600.883 53.417L593.575 63.584C593.482 63.7129 593.36 63.8179 593.219 63.8902C593.077 63.9626 592.921 64.0002 592.762 64Z" fill="white"/>
<path d="M542.681 78.164C549.564 78.164 555.144 72.7014 555.144 65.963C555.144 59.2245 549.564 53.762 542.681 53.762C535.798 53.762 530.218 59.2245 530.218 65.963C530.218 72.7014 535.798 78.164 542.681 78.164Z" fill="#ABFEFE"/>
<path d="M541.762 71H541.734C541.571 70.9954 541.411 70.9509 541.269 70.8704C541.127 70.7898 541.007 70.6757 540.919 70.538L536.694 63.913C536.551 63.6893 536.504 63.4181 536.561 63.1591C536.618 62.9002 536.776 62.6746 537 62.532C537.224 62.3895 537.495 62.3416 537.754 62.399C538.013 62.4564 538.238 62.6143 538.381 62.838L541.812 68.218L548.259 59.25C548.335 59.1414 548.431 59.049 548.543 58.978C548.655 58.9071 548.78 58.8591 548.911 58.8368C549.041 58.8145 549.175 58.8184 549.304 58.8482C549.433 58.878 549.555 58.9331 549.662 59.0104C549.77 59.0877 549.861 59.1856 549.931 59.2985C550 59.4113 550.046 59.5367 550.067 59.6676C550.087 59.7985 550.082 59.9321 550.05 60.0608C550.019 60.1894 549.962 60.3105 549.883 60.417L542.575 70.584C542.482 70.7129 542.36 70.8179 542.219 70.8902C542.077 70.9626 541.921 71.0002 541.762 71Z" fill="white"/>
<path d="M488.762 72H488.734C488.571 71.9954 488.411 71.9509 488.269 71.8704C488.127 71.7898 488.007 71.6757 487.919 71.538L483.694 64.913C483.551 64.6893 483.504 64.4181 483.561 64.1591C483.618 63.9002 483.776 63.6746 484 63.532C484.224 63.3895 484.495 63.3416 484.754 63.399C485.013 63.4564 485.238 63.6143 485.381 63.838L488.812 69.218L495.259 60.25C495.335 60.1414 495.431 60.049 495.543 59.978C495.655 59.9071 495.78 59.8591 495.911 59.8368C496.041 59.8145 496.175 59.8184 496.304 59.8482C496.433 59.878 496.555 59.9331 496.662 60.0104C496.77 60.0877 496.861 60.1856 496.931 60.2985C497 60.4113 497.046 60.5367 497.067 60.6676C497.087 60.7985 497.082 60.9321 497.05 61.0608C497.019 61.1894 496.962 61.3105 496.883 61.417L489.575 71.584C489.482 71.7129 489.36 71.8179 489.219 71.8902C489.077 71.9626 488.921 72.0002 488.762 72Z" fill="white"/>
<path d="M492.463 78.402C499.346 78.402 504.926 72.9394 504.926 66.201C504.926 59.4626 499.346 54 492.463 54C485.58 54 480 59.4626 480 66.201C480 72.9394 485.58 78.402 492.463 78.402Z" fill="#ABFEFE"/>
<path d="M491.225 72.167H491.197C491.034 72.1624 490.874 72.1179 490.732 72.0374C490.59 71.9568 490.47 71.8427 490.382 71.705L486.157 65.08C486.014 64.8563 485.967 64.5851 486.024 64.3261C486.081 64.0671 486.239 63.8416 486.463 63.699C486.687 63.5565 486.958 63.5086 487.217 63.566C487.476 63.6234 487.701 63.7813 487.844 64.005L491.275 69.385L497.722 60.417C497.798 60.3084 497.894 60.2159 498.006 60.145C498.118 60.0741 498.243 60.0261 498.374 60.0038C498.504 59.9815 498.638 59.9853 498.767 60.0152C498.896 60.045 499.018 60.1001 499.125 60.1774C499.233 60.2547 499.324 60.3526 499.394 60.4654C499.463 60.5783 499.509 60.7037 499.53 60.8346C499.55 60.9655 499.545 61.0991 499.513 61.2278C499.482 61.3564 499.425 61.4775 499.346 61.584L492.038 71.751C491.945 71.8799 491.823 71.9849 491.682 72.0572C491.54 72.1296 491.384 72.1672 491.225 72.167Z" fill="white"/>
<path d="M440.681 78.164C447.564 78.164 453.144 72.7014 453.144 65.963C453.144 59.2245 447.564 53.762 440.681 53.762C433.798 53.762 428.218 59.2245 428.218 65.963C428.218 72.7014 433.798 78.164 440.681 78.164Z" fill="#ABFEFE"/>
<path d="M439.762 71H439.734C439.571 70.9954 439.411 70.9509 439.269 70.8704C439.127 70.7898 439.007 70.6757 438.919 70.538L434.694 63.913C434.623 63.8022 434.575 63.6787 434.552 63.5493C434.53 63.42 434.533 63.2874 434.561 63.1591C434.589 63.0309 434.643 62.9095 434.718 62.8019C434.793 62.6943 434.889 62.6026 435 62.532C435.111 62.4614 435.234 62.4134 435.364 62.3905C435.493 62.3677 435.626 62.3706 435.754 62.399C435.882 62.4274 436.003 62.4808 436.111 62.5561C436.219 62.6315 436.31 62.7272 436.381 62.838L439.812 68.218L446.259 59.25C446.335 59.1414 446.431 59.049 446.543 58.978C446.655 58.9071 446.78 58.8591 446.911 58.8368C447.041 58.8145 447.175 58.8184 447.304 58.8482C447.433 58.878 447.555 58.9331 447.662 59.0104C447.77 59.0877 447.861 59.1856 447.931 59.2985C448 59.4113 448.046 59.5367 448.067 59.6676C448.087 59.7985 448.082 59.9321 448.05 60.0608C448.019 60.1894 447.962 60.3105 447.883 60.417L440.575 70.584C440.482 70.7129 440.36 70.8179 440.219 70.8902C440.077 70.9626 439.921 71.0002 439.762 71Z" fill="white"/>
<path d="M434.56 84.7259C434.559 83.6007 434.111 82.5218 433.316 81.7261C432.52 80.9305 431.441 80.483 430.316 80.4819H364.537C363.411 80.4819 362.332 80.9291 361.536 81.725C360.74 82.5209 360.293 83.6004 360.293 84.7259C360.293 85.8515 360.74 86.931 361.536 87.7269C362.332 88.5228 363.411 88.9699 364.537 88.9699H430.316C431.441 88.9689 432.52 88.5214 433.316 87.7257C434.111 86.93 434.559 85.8512 434.56 84.7259Z" fill="#3F3D56"/>
<path d="M397.965 69.778C412.571 69.778 424.411 58.1871 424.411 43.889C424.411 29.5909 412.571 18 397.965 18C383.359 18 371.519 29.5909 371.519 43.889C371.519 58.1871 383.359 69.778 397.965 69.778Z" fill="#00DBD0"/>
<path d="M396.016 54.5779H395.957C395.61 54.5683 395.272 54.4739 394.97 54.3031C394.669 54.1323 394.413 53.8902 394.227 53.5979L385.263 39.5399C384.96 39.0653 384.859 38.49 384.981 37.9405C385.102 37.391 385.437 36.9124 385.912 36.6099C386.387 36.3075 386.962 36.2059 387.511 36.3276C388.061 36.4493 388.539 36.7843 388.842 37.2589L396.122 48.6759L409.8 29.6439C410.133 29.1984 410.627 28.9012 411.176 28.8164C411.726 28.7315 412.287 28.8658 412.738 29.1902C413.19 29.5147 413.496 30.0034 413.591 30.5513C413.686 31.0992 413.562 31.6625 413.246 32.1199L397.739 53.6939C397.543 53.9674 397.284 54.1902 396.984 54.344C396.685 54.4977 396.353 54.5779 396.016 54.5779Z" fill="white"/>
<path d="M125.253 15.5249C126.549 16.1648 127.764 16.957 128.873 17.8849C129.193 18.1549 126.163 18.5149 126.463 18.7949C124.313 22.2549 133.273 26.5849 129.463 26.7949C128.703 25.1749 116.973 21.3849 115.703 20.1349C115.883 21.5749 120.633 23.3649 120.463 24.7949C116.193 24.5249 106.673 22.9249 101.463 20.7949C104.602 27.0499 104.626 31.9669 97.463 33.7949C96.2208 33.795 94.9968 34.0936 93.8941 34.6655C92.7914 35.2375 91.8424 36.0661 91.1268 37.0814C90.4112 38.0968 89.9502 39.2693 89.7825 40.5001C89.6147 41.731 89.7452 42.9841 90.163 44.1539L91.463 47.7949L86.463 42.7949C84.384 40.7159 80.356 35.7949 79.031 30.5439C78.1452 26.7603 78.7923 22.78 80.831 19.4719C80.904 19.3479 80.97 19.2289 81.031 19.1149C79.903 19.6347 78.723 20.0336 77.511 20.3049C77.461 18.1249 85.921 14.0849 86.461 12.7949C88.971 6.7849 85.311 6.7949 95.461 6.7949C96.336 6.2119 98.094 7.2079 100.461 6.7949C104.817 6.0349 106.618 3.0619 112.027 4.1949C116.379 5.10461 120.641 6.4059 124.759 8.0829L126.459 8.7919C127.379 10.1444 127.864 11.746 127.849 13.3819C127.757 13.3604 127.663 13.3437 127.569 13.3319C125.799 13.0819 126.989 15.1419 125.249 15.5219L125.253 15.5249Z" fill="#2F2E41"/>
</svg>
