<svg width="60" height="49" viewBox="0 0 60 49" fill="none" xmlns="http://www.w3.org/2000/svg">
<path d="M31.9 26.8031C29.8648 20.3726 25.903 14.7227 20.551 10.6181C14.844 6.1441 8.22898 4.1931 1.59698 1.5791C0.455985 11.8221 -1.20302 24.8271 4.08298 34.2391C7.21644 39.7673 12.0891 44.1049 17.943 46.5771C20.0396 47.4661 22.2389 48.0903 24.49 48.4351C24.8732 48.4928 25.2596 48.5262 25.647 48.5351C22.9315 38.1681 18.087 28.4801 11.422 20.0881C11.1991 19.8082 11.0965 19.4512 11.1368 19.0956C11.1771 18.74 11.357 18.415 11.637 18.1921C11.9169 17.9692 12.2739 17.8666 12.6295 17.9069C12.9851 17.9473 13.3101 18.1272 13.533 18.4071C20.4891 27.1649 25.5292 37.2855 28.327 48.1141C29.3727 47.7228 30.3018 47.0721 31.027 46.2231C35.91 40.5801 31.942 26.9421 31.9 26.8031Z" fill="#00DBD0"/>
<path d="M59.415 0.444092C59.415 0.444092 54.507 2.51709 54.078 2.70709C47.96 5.40709 40.433 8.97109 37.734 15.3561C35.8647 20.0745 35.2835 25.2051 36.05 30.2221C36.07 30.3841 36.089 30.5511 36.11 30.7221C36.334 32.6391 36.639 35.2631 38.864 36.5981C38.943 36.6451 39.027 36.6921 39.116 36.7371C39.5906 29.0832 42.6212 21.8103 47.722 16.0841C47.9711 15.8111 48.3153 15.6438 48.6839 15.6166C49.0525 15.5895 49.4175 15.7045 49.704 15.9381C49.8429 16.05 49.9576 16.189 50.041 16.3467C50.1244 16.5045 50.1748 16.6775 50.189 16.8554C50.2032 17.0332 50.181 17.2121 50.1237 17.381C50.0665 17.55 49.9754 17.7055 49.856 17.8381C45.0732 23.208 42.2677 30.0502 41.904 37.2321C42.4713 37.1755 43.0299 37.0516 43.568 36.8631C46.9374 35.6295 49.988 33.6573 52.496 31.0911C52.856 30.7421 53.208 30.3781 53.545 30.0081C61.13 21.6961 59.415 0.444092 59.415 0.444092Z" fill="#00DBD0"/>
</svg>
