<svg width="71" height="90" viewBox="0 0 71 90" fill="none" xmlns="http://www.w3.org/2000/svg">
<path d="M63.81 13.429V83.619H6.38098V80.429H54.238L57.428 77.239V13.429H63.81Z" fill="white"/>
<path d="M67 7.04799H57.429V3.85699L54.238 0.666992H15.952L12.762 3.85699V7.04699H3.19L0 10.238V86.81L3.19 90H67L70.19 86.81V10.238L67 7.04799ZM19.143 7.04799H51.043V13.429H19.143V7.04799ZM63.81 83.619H6.381V13.429H12.762V16.619L15.952 19.809H54.238L57.428 16.619V13.429H63.81V83.619Z" fill="#00DBD0"/>
<path d="M45.017 50.279L41.471 57.33L28.363 31.136H22.684L13.971 48.524H9.57098V54.905H15.952L18.792 53.15L25.524 39.718L38.636 65.912H44.315L49.835 54.905H60.619V48.524H47.857L45.017 50.279Z" fill="#00DBD0"/>
</svg>
